<svg data-name="layer-1" xmlns="http://www.w3.org/2000/svg" viewBox="0 0 445.04 445.04"><path class="cls-1" fill="#1a7e80" d="M230.07 58.35c27.72 1.48 54.28 8.9 75.39 23.84l-52.94 39.55z"/><path class="cls-2" fill="#239a8d" d="M252.51 121.74l52.94-39.55c2 1.41 3.91 2.87 5.78 4.42 8.12 6.64 9.34 11 10.93 18.32 1.36 6.23-.35 18-1.5 21.56a88.34 88.34 0 0 1-5.3 12.87l-62.82-17.48z"/><path class="cls-3" fill="#0f5e5f" d="M230.07 58.35l22.44 63.39-.12.08L181.13 102l-1-38.68a158.15 158.15 0 0 1 44.6-5.16c1.79.03 3.58.09 5.34.19z"/><path class="cls-4" fill="#00413e" d="M180.13 63.29l1 38.68-52.31-14.57a156.87 156.87 0 0 1 51.31-24.11z"/><path class="cls-5" fill="#4fa497" d="M252.55 121.87l62.82 17.48c-6.55 12.94-14.27 19.72-18.72 24-3.13 3-6.14 5.62-9 8l-18.28-1.89z"/><path class="cls-6" fill="#2a908e" d="M252.39 121.82l.16.05 16.83 47.55-70.94-7.3 53.95-40.3"/><path class="cls-7" fill="#1b6566" d="M181.13 101.97l71.26 19.85-53.95 40.3-.02.01-15.8-1.64-1.49-58.52"/><path class="cls-8" fill="#003937" d="M128.82 87.4l52.31 14.6 1.5 58.52-48-4.94-36.26-38.63-.56-.42a156.88 156.88 0 0 1 31.01-29.13z"/><path class="cls-9" fill="#63ab9f" d="M269.38 169.42l18.28 1.89a115 115 0 0 1-14.1 9.88z"/><path class="cls-10" fill="#1d9898" d="M198.44 162.12l70.94 7.3 4.18 11.77c-12.07 7.1-20.46 8.64-24.58 11.14-18.43 11.21-21.78 25.92-28.14 36.72l-21-3.9-16-17.1-.84-34.38 15.46-11.54z"/><path class="cls-11" fill="#014e4d" d="M97.81 116.53l.56.42 6.78 35.57-28-2.88a156.37 156.37 0 0 1 20.66-33.11z"/><path class="cls-12" fill="#002e2f" d="M98.37 116.95l36.21 38.59-29.43-3.02-6.78-35.57"/><path class="cls-6" fill="#2a908e" d="M182.62 160.49l15.8 1.64-15.47 11.54-.33-13.18"/><path class="cls-13" fill="#126a6f" d="M134.6 155.55l48.02 4.94.33 13.18-18.44 13.77-29.91-31.89"/><path class="cls-6" fill="#2a908e" d="M182.95 173.67l.88 34.37-19.32-20.6 18.44-13.77"/><path class="cls-3" fill="#0f5e5f" d="M105.15 152.52l29.43 3.02.02.01 29.91 31.89-33.34 24.91-15.17-2.83-10.85-57"/><path class="cls-14" fill="#03474a" d="M77.16 149.64l28 2.88 10.85 57-52.42-9.78a155.56 155.56 0 0 1 13.57-50.1z"/><path class="cls-15" fill="#12726d" d="M164.51 187.44l19.32 20.6.37 14.19-53.03-9.88 33.34-24.91"/><path class="cls-6" fill="#2a908e" d="M183.83 208.04l16.05 17.1-15.68-2.91-.37-14.19"/><path class="cls-16" fill="#77b3a8" d="M199.88 225.14l21 3.9a37.57 37.57 0 0 1-3.53 5c-1.47 1.72-2.91 3.38-4.36 5z"/><path class="cls-17" fill="#7cafa9" d="M184.2 222.23l15.68 2.92 13.06 13.92A170.58 170.58 0 0 1 185.25 264z"/><path class="cls-5" fill="#4fa497" d="M131.17 212.35l53 9.88 1.08 41.77a116.48 116.48 0 0 1-26.43 14.37 88.62 88.62 0 0 1-29.18 5.85l-.1-3.57-11.19-58.74z"/><path class="cls-18" fill="#198383" d="M116 209.52l15.17 2.83-12.81 9.54-2.36-12.37"/><path class="cls-1" fill="#1a7e80" d="M63.58 199.74l52.42 9.78 2.36 12.37-44.82 33.49C66.4 243.82 62.41 228.93 62.89 211c.11-3.79.33-7.56.69-11.26z"/><path class="cls-19" fill="#279b97" d="M118.36 221.89l11.19 58.74.1 3.57c-23.46.56-44.18-9.49-56.1-28.82z"/><path class="cls-20" fill="none" d="M405.61 218.49c-1.3-100.16-81.55-177.34-182.14-177.34S41.34 122.35 41.34 222.52c0 99.25 80.06 179.87 179.38 181.33h153.87a29.81 29.81 0 0 0 29.87-29.51l1-129.16-.08-6.07c0-2.95.08-7.77.22-10.72.24-4.14.05-7.25.01-9.9z"/><path class="cls-21" fill="#459589" d="M223.45 0C100 0 0 99.63 0 222.52 0 344.29 98.23 443.2 220.08 445H445V199.49a108.31 108.31 0 0 0-1.67-19.18C424.61 76.06 334.06 0 223.45 0zm182 239.15l.08 6.07-1 129.16a29.81 29.81 0 0 1-29.87 29.51H220.72c-99.32-1.5-179.38-82.12-179.38-181.37 0-100.17 81.54-181.37 182.13-181.37s180.84 77.18 182.14 177.34c0 2.65.23 5.76 0 9.94-.12 2.95-.23 7.77-.19 10.72z"/></svg>